<?xml version="1.0" encoding="utf-8"?>
<!-- Generator: Adobe Illustrator 16.0.0, SVG Export Plug-In . SVG Version: 6.00 Build 0)  -->
<!DOCTYPE svg PUBLIC "-//W3C//DTD SVG 1.1//EN" "http://www.w3.org/Graphics/SVG/1.1/DTD/svg11.dtd">
<svg version="1.1" id="Layer_1" xmlns="http://www.w3.org/2000/svg" xmlns:xlink="http://www.w3.org/1999/xlink" x="0px" y="0px"
	 width="2159.367px" height="792px" viewBox="0 0 2159.367 792" enable-background="new 0 0 2159.367 792" xml:space="preserve">
<g>
	<polygon fill="#39B54A" points="111.85,1908.622 111.85,1943.122 101.891,1948.872 101.891,1937.372 91.934,1943.122 
		91.934,1954.622 81.973,1960.372 81.973,1925.872 91.934,1920.122 91.934,1931.622 101.891,1925.872 101.891,1914.372 	"/>
	<polygon fill="#D32E2D" points="72.014,1954.622 72.014,1966.122 62.055,1960.372 62.055,1948.872 	"/>
	<polygon fill="#D32E2D" points="111.85,1897.122 101.891,1902.872 91.934,1908.622 72.014,1920.122 72.014,1943.122 
		62.055,1937.372 62.055,1914.372 91.934,1897.122 72.014,1885.622 52.096,1897.122 62.055,1902.872 52.096,1908.622 
		42.137,1902.872 32.179,1897.122 42.137,1891.372 52.096,1885.622 72.014,1874.122 91.934,1885.622 101.891,1891.372 	"/>
	<polygon fill="#4D62AD" points="52.096,1943.122 52.096,1954.622 42.137,1948.872 32.179,1943.122 32.179,1908.622 
		42.137,1914.372 42.137,1937.372 	"/>
</g>
<g>
	<path d="M-75.289,1981.478h21.68v4.842h-8.46v30.615h-4.787v-30.615h-8.433V1981.478z"/>
	<path d="M-47.402,1981.478h7.682c3.822,0,6.934,0.951,9.338,2.852c2.402,1.902,3.604,4.336,3.604,7.305
		c0,2.373-0.777,4.471-2.332,6.287c-1.555,1.818-3.979,3.098-7.272,3.84l10.301,15.174h-5.556l-9.836-14.584h-1.085v14.584h-4.843
		V1981.478z M-42.56,1985.763v12.357c7.144,0.148,10.716-1.92,10.716-6.205c0-1.504-0.418-2.732-1.253-3.688
		c-0.835-0.957-1.948-1.605-3.34-1.949S-39.869,1985.763-42.56,1985.763z"/>
	<path d="M-19.738,1981.478h4.787v35.457h-4.787V1981.478z"/>
	<path d="M-10.107,1981.534h5.111l11.135,25.111l11.217-25.111h5.155l-16.435,36.598L-10.107,1981.534z"/>
	<path d="M27.187,1981.478h4.787v35.457h-4.787V1981.478z"/>
	<path d="M53,1980.114l16.742,36.82h-5.076l-4.115-9.072H45.506l-4.069,9.072h-5.038L53,1980.114z M52.987,1991.181l-5.673,12.646
		h11.406L52.987,1991.181z"/>
	<path d="M90.086,1981.478h4.844v13.637h16.949v-13.637h4.787v35.457h-4.787v-17.033H94.93v17.033h-4.844V1981.478z"/>
	<path d="M137.58,1980.114l16.742,36.82h-5.076l-4.115-9.072h-15.045l-4.068,9.072h-5.039L137.58,1980.114z M137.568,1991.181
		l-5.674,12.646h11.406L137.568,1991.181z"/>
	<path d="M185.158,1982.702v5.482c-3.822-1.873-7.338-2.811-10.547-2.811c-4.119,0-7.59,1.33-10.41,3.99s-4.23,5.926-4.23,9.801
		c0,3.947,1.443,7.242,4.328,9.883c2.885,2.643,6.498,3.963,10.84,3.963c3.154,0,6.494-0.992,10.02-2.979v5.539
		c-3.211,1.707-6.688,2.561-10.436,2.561c-5.492,0-10.188-1.859-14.084-5.576s-5.844-8.199-5.844-13.447
		c0-5.154,1.916-9.566,5.746-13.238c3.832-3.67,8.447-5.506,13.848-5.506C177.857,1980.364,181.447,1981.144,185.158,1982.702z"/>
	<path d="M190.92,1981.478h4.842v14.402l15.041-14.402h6.752l-17.137,16.453l17.248,19.004h-6.168l-15.736-17.297v17.297h-4.842
		V1981.478z"/>
</g>
<g>
	<polygon fill="#39B54A" points="129.814,2098.159 129.814,2146.194 115.949,2154.2 115.949,2138.188 102.086,2146.194 
		102.086,2162.204 88.217,2170.21 88.217,2122.177 102.086,2114.171 102.086,2130.183 115.949,2122.177 115.949,2106.165 	"/>
	<polygon fill="#D32E2D" points="74.352,2162.204 74.352,2178.216 60.486,2170.21 60.486,2154.2 	"/>
	<polygon fill="#D32E2D" points="129.814,2082.147 115.949,2090.153 102.086,2098.159 74.352,2114.171 74.352,2146.194 
		60.486,2138.188 60.486,2106.165 102.086,2082.147 74.352,2066.138 46.621,2082.147 60.486,2090.153 46.621,2098.159 
		32.755,2090.153 18.891,2082.147 32.755,2074.142 46.621,2066.138 74.352,2050.126 102.086,2066.138 115.949,2074.142 	"/>
	<polygon fill="#4D62AD" points="46.621,2146.194 46.621,2162.204 32.755,2154.2 18.891,2146.194 18.891,2098.159 32.755,2106.165 
		32.755,2138.188 	"/>
</g>
<g>
	<path d="M-130.735,2199.593h30.187v6.744h-11.78v42.625h-6.665v-42.625h-11.741V2199.593z"/>
	<path d="M-91.908,2199.593h10.695c5.321,0,9.654,1.324,13,3.973c3.346,2.646,5.019,6.037,5.019,10.168
		c0,3.307-1.083,6.225-3.247,8.754c-2.164,2.533-5.54,4.314-10.125,5.348l14.342,21.127h-7.736l-13.693-20.307h-1.512v20.307h-6.742
		V2199.593z M-85.166,2205.562v17.205c9.945,0.205,14.919-2.674,14.919-8.641c0-2.094-0.581-3.805-1.743-5.135
		c-1.163-1.33-2.713-2.234-4.65-2.711C-78.578,2205.8-81.421,2205.562-85.166,2205.562z"/>
	<path d="M-53.391,2199.593h6.664v49.369h-6.664V2199.593z"/>
	<path d="M-39.983,2199.673h7.118l15.502,34.963l15.617-34.963H5.43l-22.88,50.953L-39.983,2199.673z"/>
	<path d="M11.94,2199.593h6.665v49.369H11.94V2199.593z"/>
	<path d="M47.881,2197.696l23.309,51.266h-7.066l-5.729-12.635H37.444l-5.664,12.635h-7.013L47.881,2197.696z M47.862,2213.103
		l-7.897,17.607h15.881L47.862,2213.103z"/>
	<path d="M99.512,2199.593h6.746v18.986h23.596v-18.986h6.666v49.369h-6.666v-23.717h-23.596v23.717h-6.746V2199.593z"/>
	<path d="M165.641,2197.696l23.307,51.266h-7.064l-5.729-12.635h-20.951l-5.664,12.635h-7.012L165.641,2197.696z M165.621,2213.103
		l-7.896,17.607h15.881L165.621,2213.103z"/>
	<path d="M231.883,2201.298v7.635c-5.322-2.609-10.217-3.914-14.688-3.914c-5.734,0-10.564,1.854-14.49,5.557
		c-3.928,3.703-5.891,8.25-5.891,13.645c0,5.496,2.006,10.084,6.025,13.762c4.018,3.676,9.047,5.516,15.092,5.516
		c4.393,0,9.043-1.383,13.951-4.146v7.711c-4.471,2.377-9.314,3.564-14.533,3.564c-7.646,0-14.18-2.588-19.605-7.762
		c-5.424-5.176-8.139-11.418-8.139-18.723c0-7.176,2.668-13.318,8.004-18.43c5.334-5.111,11.76-7.668,19.275-7.668
		C221.717,2198.044,226.715,2199.128,231.883,2201.298z"/>
	<path d="M239.904,2199.593h6.74v20.055l20.941-20.055h9.4l-23.859,22.908l24.016,26.461h-8.588l-21.91-24.084v24.084h-6.74
		V2199.593z"/>
</g>
<g>
	<polygon fill="#39B54A" points="98.061,1758.882 98.061,1782.911 91.125,1786.913 91.125,1778.905 84.189,1782.911 
		84.189,1790.919 77.252,1794.925 77.252,1770.896 84.189,1766.89 84.189,1774.899 91.125,1770.896 91.125,1762.886 	"/>
	<polygon fill="#D32E2D" points="70.316,1790.919 70.316,1798.929 63.379,1794.925 63.379,1786.913 	"/>
	<polygon fill="#D32E2D" points="98.061,1750.872 91.125,1754.876 84.189,1758.882 70.316,1766.89 70.316,1782.911 63.379,1778.905 
		63.379,1762.886 84.189,1750.872 70.316,1742.862 56.442,1750.872 63.379,1754.876 56.442,1758.882 49.507,1754.876 
		42.571,1750.872 49.507,1746.866 56.442,1742.862 70.316,1734.853 84.189,1742.862 91.125,1746.866 	"/>
	<polygon fill="#4D62AD" points="56.442,1782.911 56.442,1790.919 49.507,1786.913 42.571,1782.911 42.571,1758.882 
		49.507,1762.886 49.507,1778.905 	"/>
</g>
<g>
	<path d="M-32.277,1809.624h15.1v3.373h-5.893v21.322h-3.334v-21.322h-5.873V1809.624z"/>
	<path d="M-12.855,1809.624h5.351c2.661,0,4.829,0.662,6.503,1.986s2.511,3.02,2.511,5.086c0,1.654-0.542,3.113-1.624,4.381
		c-1.083,1.266-2.771,2.156-5.066,2.674l7.174,10.568h-3.868l-6.851-10.158h-0.756v10.158h-3.373V1809.624z M-9.482,1812.608v8.605
		c4.975,0.105,7.463-1.336,7.463-4.32c0-1.047-0.291-1.904-0.873-2.568c-0.582-0.666-1.356-1.119-2.325-1.357
		C-6.188,1812.728-7.609,1812.608-9.482,1812.608z"/>
	<path d="M6.412,1809.624h3.334v24.695H6.412V1809.624z"/>
	<path d="M13.119,1809.663h3.561l7.756,17.49l7.812-17.49h3.591l-11.447,25.49L13.119,1809.663z"/>
	<path d="M39.094,1809.624h3.334v24.695h-3.334V1809.624z"/>
	<path d="M57.074,1808.673l11.658,25.646h-3.533l-2.867-6.32H51.854l-2.834,6.32h-3.509L57.074,1808.673z M57.064,1816.382
		l-3.951,8.807h7.945L57.064,1816.382z"/>
	<path d="M82.902,1809.624h3.375v9.498H98.08v-9.498h3.336v24.695H98.08v-11.863H86.277v11.863h-3.375V1809.624z"/>
	<path d="M115.982,1808.673l11.658,25.646h-3.533l-2.865-6.32h-10.479l-2.834,6.32h-3.51L115.982,1808.673z M115.973,1816.382
		l-3.951,8.807h7.945L115.973,1816.382z"/>
	<path d="M149.119,1810.476v3.82c-2.662-1.307-5.111-1.959-7.346-1.959c-2.869,0-5.287,0.928-7.25,2.779
		c-1.965,1.854-2.947,4.127-2.947,6.826c0,2.748,1.004,5.045,3.014,6.885c2.01,1.838,4.527,2.76,7.551,2.76
		c2.197,0,4.523-0.691,6.979-2.076v3.859c-2.236,1.188-4.658,1.783-7.27,1.783c-3.824,0-7.094-1.295-9.809-3.885
		c-2.713-2.588-4.07-5.711-4.07-9.365c0-3.59,1.334-6.664,4.002-9.221c2.67-2.557,5.885-3.834,9.645-3.834
		C144.035,1808.849,146.533,1809.39,149.119,1810.476z"/>
	<path d="M153.131,1809.624h3.373v10.031l10.477-10.031h4.703l-11.938,11.459l12.014,13.236h-4.297l-10.959-12.049v12.049h-3.373
		V1809.624z"/>
</g>
<g>
	<polygon points="1084.16,1877.382 1084.16,1911.882 1074.201,1917.632 1074.201,1906.132 1064.244,1911.882 1064.244,1923.382 
		1054.283,1929.132 1054.283,1894.632 1064.244,1888.882 1064.244,1900.382 1074.201,1894.632 1074.201,1883.132 	"/>
	<polygon points="1044.325,1923.382 1044.325,1934.882 1034.366,1929.132 1034.366,1917.632 	"/>
	<polygon points="1084.16,1865.882 1074.201,1871.632 1064.244,1877.382 1044.325,1888.882 1044.325,1911.882 1034.366,1906.132 
		1034.366,1883.132 1064.244,1865.882 1044.325,1854.382 1024.407,1865.882 1034.366,1871.632 1024.407,1877.382 1014.448,1871.632 
		1004.49,1865.882 1014.448,1860.132 1024.407,1854.382 1044.325,1842.882 1064.244,1854.382 1074.201,1860.132 	"/>
	<polygon points="1024.407,1911.882 1024.407,1923.382 1014.448,1917.632 1004.49,1911.882 1004.49,1877.382 1014.448,1883.132 
		1014.448,1906.132 	"/>
</g>
<g>
	<path d="M897.022,1950.237h21.68v4.842h-8.46v30.615h-4.787v-30.615h-8.433V1950.237z"/>
	<path d="M924.909,1950.237h7.682c3.822,0,6.934,0.951,9.338,2.852c2.402,1.902,3.604,4.336,3.604,7.305
		c0,2.373-0.777,4.471-2.332,6.287c-1.555,1.818-3.979,3.098-7.272,3.84l10.301,15.174h-5.556l-9.836-14.584h-1.085v14.584h-4.843
		V1950.237z M929.751,1954.522v12.357c7.144,0.148,10.716-1.92,10.716-6.205c0-1.504-0.418-2.732-1.253-3.688
		c-0.835-0.957-1.948-1.605-3.34-1.949S932.442,1954.522,929.751,1954.522z"/>
	<path d="M952.573,1950.237h4.787v35.457h-4.787V1950.237z"/>
	<path d="M962.204,1950.294h5.111l11.135,25.111l11.217-25.111h5.155l-16.435,36.598L962.204,1950.294z"/>
	<path d="M999.498,1950.237h4.787v35.457h-4.787V1950.237z"/>
	<path d="M1025.311,1948.874l16.741,36.82h-5.075l-4.115-9.072h-15.045l-4.069,9.072h-5.038L1025.311,1948.874z M1025.298,1959.94
		l-5.673,12.646h11.406L1025.298,1959.94z"/>
	<path d="M1062.396,1950.237h4.844v13.637h16.949v-13.637h4.787v35.457h-4.787v-17.033h-16.949v17.033h-4.844V1950.237z"/>
	<path d="M1109.891,1948.874l16.742,36.82h-5.076l-4.115-9.072h-15.045l-4.068,9.072h-5.039L1109.891,1948.874z M1109.879,1959.94
		l-5.674,12.646h11.406L1109.879,1959.94z"/>
	<path d="M1157.469,1951.462v5.482c-3.822-1.873-7.338-2.811-10.547-2.811c-4.119,0-7.59,1.33-10.41,3.99s-4.23,5.926-4.23,9.801
		c0,3.947,1.443,7.242,4.328,9.883c2.885,2.643,6.498,3.963,10.84,3.963c3.154,0,6.494-0.992,10.02-2.979v5.539
		c-3.211,1.707-6.688,2.561-10.436,2.561c-5.492,0-10.188-1.859-14.084-5.576s-5.844-8.199-5.844-13.447
		c0-5.154,1.916-9.566,5.746-13.238c3.832-3.67,8.447-5.506,13.848-5.506C1150.168,1949.124,1153.758,1949.903,1157.469,1951.462z"
		/>
	<path d="M1163.23,1950.237h4.842v14.402l15.041-14.402h6.752l-17.137,16.453l17.248,19.004h-6.168l-15.736-17.297v17.297h-4.842
		V1950.237z"/>
</g>
<g>
	<polygon points="1102.125,2066.919 1102.125,2114.954 1088.26,2122.958 1088.26,2106.946 1074.396,2114.954 1074.396,2130.964 
		1060.527,2138.97 1060.527,2090.937 1074.396,2082.931 1074.396,2098.94 1088.26,2090.937 1088.26,2074.925 	"/>
	<polygon points="1046.662,2130.964 1046.662,2146.976 1032.797,2138.97 1032.797,2122.958 	"/>
	<polygon points="1102.125,2050.907 1088.26,2058.913 1074.396,2066.919 1046.662,2082.931 1046.662,2114.954 1032.797,2106.946 
		1032.797,2074.925 1074.396,2050.907 1046.662,2034.897 1018.932,2050.907 1032.797,2058.913 1018.932,2066.919 1005.066,2058.913 
		991.202,2050.907 1005.066,2042.901 1018.932,2034.897 1046.662,2018.886 1074.396,2034.897 1088.26,2042.901 	"/>
	<polygon points="1018.932,2114.954 1018.932,2130.964 1005.066,2122.958 991.202,2114.954 991.202,2066.919 1005.066,2074.925 
		1005.066,2106.946 	"/>
</g>
<g>
	<path d="M841.576,2168.353h30.187v6.742h-11.78v42.625h-6.665v-42.625h-11.741V2168.353z"/>
	<path d="M880.403,2168.353h10.695c5.321,0,9.654,1.324,13,3.973c3.346,2.646,5.019,6.035,5.019,10.168
		c0,3.305-1.083,6.225-3.247,8.754c-2.164,2.531-5.54,4.313-10.125,5.348l14.342,21.125h-7.736l-13.693-20.305h-1.512v20.305h-6.742
		V2168.353z M887.145,2174.321v17.205c9.945,0.205,14.919-2.674,14.919-8.643c0-2.092-0.581-3.805-1.743-5.135
		c-1.163-1.328-2.713-2.232-4.65-2.711S890.89,2174.321,887.145,2174.321z"/>
	<path d="M918.92,2168.353h6.664v49.367h-6.664V2168.353z"/>
	<path d="M932.328,2168.431h7.118l15.502,34.963l15.617-34.963h7.176l-22.88,50.955L932.328,2168.431z"/>
	<path d="M984.251,2168.353h6.665v49.367h-6.665V2168.353z"/>
	<path d="M1020.192,2166.456l23.309,51.264h-7.066l-5.729-12.633h-20.949l-5.664,12.633h-7.013L1020.192,2166.456z
		 M1020.173,2181.862l-7.897,17.607h15.881L1020.173,2181.862z"/>
	<path d="M1071.822,2168.353h6.746v18.986h23.596v-18.986h6.666v49.367h-6.666v-23.715h-23.596v23.715h-6.746V2168.353z"/>
	<path d="M1137.951,2166.456l23.307,51.264h-7.064l-5.729-12.633h-20.951l-5.664,12.633h-7.012L1137.951,2166.456z
		 M1137.932,2181.862l-7.896,17.607h15.881L1137.932,2181.862z"/>
	<path d="M1204.193,2170.058v7.635c-5.322-2.609-10.217-3.914-14.688-3.914c-5.734,0-10.564,1.854-14.49,5.555
		c-3.928,3.705-5.891,8.252-5.891,13.645c0,5.498,2.006,10.084,6.025,13.762c4.018,3.678,9.047,5.518,15.092,5.518
		c4.393,0,9.043-1.383,13.951-4.146v7.711c-4.471,2.377-9.314,3.564-14.533,3.564c-7.646,0-14.18-2.588-19.605-7.762
		c-5.424-5.176-8.139-11.418-8.139-18.723c0-7.176,2.668-13.318,8.004-18.432c5.334-5.111,11.76-7.668,19.275-7.668
		C1194.027,2166.802,1199.025,2167.888,1204.193,2170.058z"/>
	<path d="M1212.215,2168.353h6.74v20.055l20.941-20.055h9.4l-23.859,22.908l24.016,26.459h-8.588l-21.91-24.082v24.082h-6.74
		V2168.353z"/>
</g>
<g>
	<polygon points="1070.371,1727.641 1070.371,1751.669 1063.436,1755.673 1063.436,1747.665 1056.5,1751.669 1056.5,1759.679 
		1049.563,1763.683 1049.563,1739.655 1056.5,1735.649 1056.5,1743.659 1063.436,1739.655 1063.436,1731.645 	"/>
	<polygon points="1042.627,1759.679 1042.627,1767.688 1035.69,1763.683 1035.69,1755.673 	"/>
	<polygon points="1070.371,1719.63 1063.436,1723.636 1056.5,1727.641 1042.627,1735.649 1042.627,1751.669 1035.69,1747.665 
		1035.69,1731.645 1056.5,1719.63 1042.627,1711.622 1028.753,1719.63 1035.69,1723.636 1028.753,1727.641 1021.818,1723.636 
		1014.882,1719.63 1021.818,1715.626 1028.753,1711.622 1042.627,1703.612 1056.5,1711.622 1063.436,1715.626 	"/>
	<polygon points="1028.753,1751.669 1028.753,1759.679 1021.818,1755.673 1014.882,1751.669 1014.882,1727.641 1021.818,1731.645 
		1021.818,1747.665 	"/>
</g>
<g>
	<path d="M940.034,1778.382h15.1v3.374h-5.893v21.323h-3.334v-21.323h-5.873V1778.382z"/>
	<path d="M959.456,1778.382h5.351c2.661,0,4.829,0.662,6.503,1.986s2.511,3.021,2.511,5.088c0,1.653-0.542,3.113-1.624,4.38
		c-1.083,1.266-2.771,2.157-5.066,2.675l7.174,10.568h-3.868l-6.851-10.158h-0.756v10.158h-3.373V1778.382z M962.829,1781.368v8.605
		c4.975,0.104,7.463-1.336,7.463-4.322c0-1.047-0.291-1.902-0.873-2.568s-1.356-1.117-2.325-1.356
		C966.124,1781.487,964.702,1781.368,962.829,1781.368z"/>
	<path d="M978.723,1778.382h3.334v24.697h-3.334V1778.382z"/>
	<path d="M985.43,1778.421h3.561l7.756,17.491l7.812-17.491h3.591l-11.447,25.49L985.43,1778.421z"/>
	<path d="M1011.405,1778.382h3.334v24.697h-3.334V1778.382z"/>
	<path d="M1029.385,1777.433l11.658,25.646h-3.533l-2.867-6.32h-10.479l-2.834,6.32h-3.509L1029.385,1777.433z M1029.375,1785.141
		l-3.951,8.808h7.945L1029.375,1785.141z"/>
	<path d="M1055.213,1778.382h3.375v9.499h11.803v-9.499h3.336v24.697h-3.336v-11.864h-11.803v11.864h-3.375V1778.382z"/>
	<path d="M1088.293,1777.433l11.658,25.646h-3.533l-2.865-6.32h-10.479l-2.834,6.32h-3.51L1088.293,1777.433z M1088.283,1785.141
		l-3.951,8.808h7.945L1088.283,1785.141z"/>
	<path d="M1121.43,1779.234v3.819c-2.662-1.305-5.111-1.959-7.346-1.959c-2.869,0-5.287,0.928-7.25,2.78
		c-1.965,1.853-2.947,4.128-2.947,6.825c0,2.75,1.004,5.045,3.014,6.885s4.527,2.76,7.551,2.76c2.197,0,4.523-0.691,6.979-2.074
		v3.857c-2.236,1.189-4.658,1.783-7.27,1.783c-3.824,0-7.094-1.293-9.809-3.883c-2.713-2.59-4.07-5.711-4.07-9.367
		c0-3.589,1.334-6.662,4.002-9.219c2.67-2.557,5.885-3.836,9.645-3.836C1116.346,1777.606,1118.844,1778.149,1121.43,1779.234z"/>
	<path d="M1125.441,1778.382h3.373v10.032l10.477-10.032h4.703l-11.938,11.461l12.014,13.236h-4.297l-10.959-12.049v12.049h-3.373
		V1778.382z"/>
</g>
<g>
	<polygon fill="#FFFFFF" points="1994.074,1894.632 1994.074,1929.132 1984.115,1934.882 1984.115,1923.382 1974.158,1929.132 
		1974.158,1940.632 1964.197,1946.382 1964.197,1911.882 1974.158,1906.132 1974.158,1917.632 1984.115,1911.882 1984.115,1900.382 
			"/>
	<polygon fill="#FFFFFF" points="1954.238,1940.632 1954.238,1952.132 1944.279,1946.382 1944.279,1934.882 	"/>
	<polygon fill="#FFFFFF" points="1994.074,1883.132 1984.115,1888.882 1974.158,1894.632 1954.238,1906.132 1954.238,1929.132 
		1944.279,1923.382 1944.279,1900.382 1974.158,1883.132 1954.238,1871.632 1934.32,1883.132 1944.279,1888.882 1934.32,1894.632 
		1924.361,1888.882 1914.402,1883.132 1924.361,1877.382 1934.32,1871.632 1954.238,1860.132 1974.158,1871.632 1984.115,1877.382 	
		"/>
	<polygon fill="#FFFFFF" points="1934.32,1929.132 1934.32,1940.632 1924.361,1934.882 1914.402,1929.132 1914.402,1894.632 
		1924.361,1900.382 1924.361,1923.382 	"/>
</g>
<g>
	<path fill="#FFFFFF" d="M1806.936,1967.487h21.68v4.842h-8.461v30.615h-4.787v-30.615h-8.432V1967.487z"/>
	<path fill="#FFFFFF" d="M1834.822,1967.487h7.682c3.822,0,6.934,0.951,9.338,2.852c2.402,1.902,3.604,4.336,3.604,7.305
		c0,2.373-0.777,4.471-2.332,6.287c-1.555,1.818-3.979,3.098-7.273,3.84l10.301,15.174h-5.555l-9.836-14.584h-1.086v14.584h-4.842
		V1967.487z M1839.664,1971.772v12.357c7.145,0.148,10.717-1.92,10.717-6.205c0-1.504-0.418-2.732-1.254-3.688
		c-0.834-0.957-1.947-1.605-3.34-1.949C1844.396,1971.944,1842.355,1971.772,1839.664,1971.772z"/>
	<path fill="#FFFFFF" d="M1862.486,1967.487h4.787v35.457h-4.787V1967.487z"/>
	<path fill="#FFFFFF" d="M1872.117,1967.544h5.111l11.135,25.111l11.217-25.111h5.154l-16.434,36.598L1872.117,1967.544z"/>
	<path fill="#FFFFFF" d="M1909.41,1967.487h4.787v35.457h-4.787V1967.487z"/>
	<path fill="#FFFFFF" d="M1935.225,1966.124l16.74,36.82h-5.074l-4.115-9.072h-15.045l-4.07,9.072h-5.037L1935.225,1966.124z
		 M1935.211,1977.19l-5.672,12.646h11.406L1935.211,1977.19z"/>
	<path fill="#FFFFFF" d="M1972.311,1967.487h4.844v13.637h16.949v-13.637h4.787v35.457h-4.787v-17.033h-16.949v17.033h-4.844
		V1967.487z"/>
	<path fill="#FFFFFF" d="M2019.805,1966.124l16.742,36.82h-5.076l-4.115-9.072h-15.045l-4.068,9.072h-5.039L2019.805,1966.124z
		 M2019.793,1977.19l-5.674,12.646h11.406L2019.793,1977.19z"/>
	<path fill="#FFFFFF" d="M2067.383,1968.712v5.482c-3.822-1.873-7.338-2.811-10.547-2.811c-4.119,0-7.59,1.33-10.41,3.99
		s-4.23,5.926-4.23,9.801c0,3.947,1.443,7.242,4.328,9.883c2.885,2.643,6.498,3.963,10.84,3.963c3.154,0,6.494-0.992,10.02-2.979
		v5.539c-3.211,1.707-6.688,2.561-10.436,2.561c-5.492,0-10.188-1.859-14.084-5.576s-5.844-8.199-5.844-13.447
		c0-5.154,1.916-9.566,5.746-13.238c3.832-3.67,8.447-5.506,13.848-5.506C2060.082,1966.374,2063.672,1967.153,2067.383,1968.712z"
		/>
	<path fill="#FFFFFF" d="M2073.145,1967.487h4.842v14.402l15.041-14.402h6.752l-17.137,16.453l17.248,19.004h-6.168l-15.736-17.297
		v17.297h-4.842V1967.487z"/>
</g>
<g>
	<polygon fill="#FFFFFF" points="2012.039,2084.169 2012.039,2132.204 1998.172,2140.21 1998.172,2124.198 1984.309,2132.204 
		1984.309,2148.214 1970.441,2156.22 1970.441,2108.187 1984.309,2100.181 1984.309,2116.192 1998.172,2108.187 1998.172,2092.175 	
		"/>
	<polygon fill="#FFFFFF" points="1956.574,2148.214 1956.574,2164.226 1942.711,2156.22 1942.711,2140.21 	"/>
	<polygon fill="#FFFFFF" points="2012.039,2068.157 1998.172,2076.163 1984.309,2084.169 1956.574,2100.181 1956.574,2132.204 
		1942.711,2124.198 1942.711,2092.175 1984.309,2068.157 1956.574,2052.147 1928.846,2068.157 1942.711,2076.163 1928.846,2084.169 
		1914.979,2076.163 1901.115,2068.157 1914.979,2060.151 1928.846,2052.147 1956.574,2036.136 1984.309,2052.147 1998.172,2060.151 
			"/>
	<polygon fill="#FFFFFF" points="1928.846,2132.204 1928.846,2148.214 1914.979,2140.21 1901.115,2132.204 1901.115,2084.169 
		1914.979,2092.175 1914.979,2124.198 	"/>
</g>
<g>
	<path fill="#FFFFFF" d="M1751.488,2185.603h30.188v6.744h-11.781v42.625h-6.664v-42.625h-11.742V2185.603z"/>
	<path fill="#FFFFFF" d="M1790.316,2185.603h10.695c5.32,0,9.654,1.324,13,3.973c3.346,2.646,5.018,6.037,5.018,10.168
		c0,3.307-1.082,6.225-3.246,8.754c-2.164,2.533-5.541,4.314-10.125,5.348l14.342,21.127h-7.736l-13.693-20.307h-1.512v20.307
		h-6.742V2185.603z M1797.059,2191.571v17.205c9.945,0.205,14.918-2.674,14.918-8.641c0-2.094-0.58-3.805-1.742-5.135
		c-1.164-1.33-2.713-2.234-4.65-2.711C1803.646,2191.81,1800.803,2191.571,1797.059,2191.571z"/>
	<path fill="#FFFFFF" d="M1828.834,2185.603h6.664v49.369h-6.664V2185.603z"/>
	<path fill="#FFFFFF" d="M1842.24,2185.683h7.119l15.502,34.963l15.617-34.963h7.176l-22.881,50.953L1842.24,2185.683z"/>
	<path fill="#FFFFFF" d="M1894.164,2185.603h6.666v49.369h-6.666V2185.603z"/>
	<path fill="#FFFFFF" d="M1930.105,2183.706l23.309,51.266h-7.066l-5.73-12.635h-20.949l-5.664,12.635h-7.012L1930.105,2183.706z
		 M1930.086,2199.112l-7.896,17.607h15.881L1930.086,2199.112z"/>
	<path fill="#FFFFFF" d="M1981.736,2185.603h6.744v18.986h23.598v-18.986h6.666v49.369h-6.666v-23.717h-23.598v23.717h-6.744
		V2185.603z"/>
	<path fill="#FFFFFF" d="M2047.865,2183.706l23.307,51.266h-7.064l-5.729-12.635h-20.951l-5.664,12.635h-7.012L2047.865,2183.706z
		 M2047.846,2199.112l-7.896,17.607h15.881L2047.846,2199.112z"/>
	<path fill="#FFFFFF" d="M2114.107,2187.308v7.635c-5.322-2.609-10.217-3.914-14.688-3.914c-5.734,0-10.564,1.854-14.49,5.557
		c-3.928,3.703-5.891,8.25-5.891,13.645c0,5.496,2.006,10.084,6.025,13.762c4.018,3.676,9.047,5.516,15.092,5.516
		c4.393,0,9.043-1.383,13.951-4.146v7.711c-4.471,2.377-9.314,3.564-14.533,3.564c-7.646,0-14.18-2.588-19.605-7.762
		c-5.424-5.176-8.139-11.418-8.139-18.723c0-7.176,2.668-13.318,8.004-18.43c5.334-5.111,11.76-7.668,19.275-7.668
		C2103.941,2184.054,2108.939,2185.138,2114.107,2187.308z"/>
	<path fill="#FFFFFF" d="M2122.129,2185.603h6.74v20.055l20.941-20.055h9.4l-23.859,22.908l24.016,26.461h-8.588l-21.91-24.084
		v24.084h-6.74V2185.603z"/>
</g>
<g>
	<polygon fill="#FFFFFF" points="1980.283,1744.892 1980.283,1768.919 1973.35,1772.923 1973.35,1764.915 1966.414,1768.919 
		1966.414,1776.929 1959.475,1780.933 1959.475,1756.905 1966.414,1752.899 1966.414,1760.909 1973.35,1756.905 1973.35,1748.896 	
		"/>
	<polygon fill="#FFFFFF" points="1952.541,1776.929 1952.541,1784.938 1945.604,1780.933 1945.604,1772.923 	"/>
	<polygon fill="#FFFFFF" points="1980.283,1736.88 1973.35,1740.886 1966.414,1744.892 1952.541,1752.899 1952.541,1768.919 
		1945.604,1764.915 1945.604,1748.896 1966.414,1736.88 1952.541,1728.872 1938.666,1736.88 1945.604,1740.886 1938.666,1744.892 
		1931.73,1740.886 1924.795,1736.88 1931.73,1732.876 1938.666,1728.872 1952.541,1720.862 1966.414,1728.872 1973.35,1732.876 	"/>
	<polygon fill="#FFFFFF" points="1938.666,1768.919 1938.666,1776.929 1931.73,1772.923 1924.795,1768.919 1924.795,1744.892 
		1931.73,1748.896 1931.73,1764.915 	"/>
</g>
<g>
	<path fill="#FFFFFF" d="M1849.947,1795.632h15.1v3.375h-5.893v21.322h-3.334v-21.322h-5.873V1795.632z"/>
	<path fill="#FFFFFF" d="M1869.369,1795.632h5.35c2.662,0,4.83,0.662,6.504,1.986s2.51,3.021,2.51,5.088
		c0,1.654-0.541,3.113-1.623,4.381c-1.084,1.266-2.771,2.156-5.066,2.674l7.174,10.568h-3.869l-6.85-10.158h-0.756v10.158h-3.373
		V1795.632z M1872.742,1798.618v8.605c4.975,0.104,7.463-1.336,7.463-4.322c0-1.047-0.291-1.902-0.873-2.568
		s-1.357-1.117-2.326-1.355C1876.037,1798.737,1874.615,1798.618,1872.742,1798.618z"/>
	<path fill="#FFFFFF" d="M1888.637,1795.632h3.334v24.697h-3.334V1795.632z"/>
	<path fill="#FFFFFF" d="M1895.344,1795.671h3.561l7.756,17.492l7.811-17.492h3.592l-11.447,25.49L1895.344,1795.671z"/>
	<path fill="#FFFFFF" d="M1921.318,1795.632h3.334v24.697h-3.334V1795.632z"/>
	<path fill="#FFFFFF" d="M1939.299,1794.683l11.658,25.646h-3.533l-2.867-6.32h-10.479l-2.834,6.32h-3.51L1939.299,1794.683z
		 M1939.289,1802.392l-3.951,8.807h7.945L1939.289,1802.392z"/>
	<path fill="#FFFFFF" d="M1965.127,1795.632h3.373v9.5h11.805v-9.5h3.336v24.697h-3.336v-11.863H1968.5v11.863h-3.373V1795.632z"/>
	<path fill="#FFFFFF" d="M1998.205,1794.683l11.66,25.646h-3.533l-2.867-6.32h-10.479l-2.834,6.32h-3.51L1998.205,1794.683z
		 M1998.197,1802.392l-3.951,8.807h7.945L1998.197,1802.392z"/>
	<path fill="#FFFFFF" d="M2031.344,1796.485v3.818c-2.662-1.305-5.111-1.959-7.346-1.959c-2.869,0-5.287,0.928-7.25,2.781
		c-1.965,1.852-2.947,4.127-2.947,6.824c0,2.75,1.004,5.045,3.014,6.885s4.527,2.76,7.551,2.76c2.197,0,4.523-0.691,6.979-2.074
		v3.857c-2.236,1.189-4.658,1.783-7.27,1.783c-3.824,0-7.094-1.293-9.809-3.883c-2.713-2.59-4.07-5.711-4.07-9.367
		c0-3.588,1.334-6.662,4.002-9.219c2.67-2.557,5.885-3.836,9.645-3.836C2026.26,1794.856,2028.758,1795.399,2031.344,1796.485z"/>
	<path fill="#FFFFFF" d="M2035.355,1795.632h3.373v10.033l10.477-10.033h4.703l-11.938,11.461l12.014,13.236h-4.297l-10.959-12.049
		v12.049h-3.373V1795.632z"/>
</g>
<polygon fill="#39B54A" points="-91.311,977.307 -91.311,1049.307 -112.095,1061.307 -112.095,1037.307 -132.878,1049.307 
	-132.878,1073.307 -153.662,1085.307 -153.662,1013.307 -132.878,1001.307 -132.878,1025.307 -112.095,1013.307 -112.095,989.307 
	"/>
<polygon fill="#D32E2E" points="-174.448,1073.307 -174.448,1097.307 -195.23,1085.307 -195.23,1061.307 "/>
<polygon fill="#D32E2E" points="-91.311,953.307 -112.095,965.307 -132.878,977.307 -174.448,1001.307 -174.448,1049.307 
	-195.23,1037.307 -195.23,989.307 -132.878,953.307 -174.448,929.307 -216.014,953.307 -195.23,965.307 -216.014,977.307 
	-236.797,965.307 -257.581,953.307 -236.797,941.307 -216.014,929.307 -174.448,905.307 -132.878,929.307 -112.095,941.307 "/>
<polygon fill="#4D62AD" points="-216.014,1049.307 -216.014,1073.307 -236.797,1061.307 -257.581,1049.307 -257.581,977.307 
	-236.797,989.307 -236.797,1037.307 "/>
<g>
	<path d="M-54.379,962.112h42.309v9.451h-16.511v59.743h-9.342v-59.743h-16.457V962.112z"/>
	<path d="M0.042,962.112h14.99c7.458,0,13.532,1.856,18.222,5.566c4.689,3.709,7.033,8.462,7.033,14.252
		c0,4.633-1.518,8.725-4.55,12.271c-3.034,3.549-7.766,6.045-14.193,7.494l20.101,29.61H30.803l-19.193-28.46H9.492v28.46h-9.45
		V962.112z M9.492,970.477v24.115c13.939,0.289,20.91-3.748,20.91-12.112c0-2.933-0.814-5.331-2.444-7.196
		c-1.629-1.864-3.802-3.132-6.518-3.802C18.725,970.812,14.741,970.477,9.492,970.477z"/>
	<path d="M54.028,962.112h9.342v69.194h-9.342V962.112z"/>
	<path d="M72.82,962.222h9.977l21.729,49.006l21.889-49.006h10.06l-32.071,71.42L72.82,962.222z"/>
	<path d="M145.598,962.112h9.342v69.194h-9.342V962.112z"/>
	<path d="M195.973,959.451l32.668,71.855h-9.903l-8.031-17.706h-29.362l-7.94,17.706h-9.831L195.973,959.451z M195.947,981.047
		l-11.069,24.679h22.259L195.947,981.047z"/>
	<path d="M268.344,962.112h9.45v26.613h33.076v-26.613h9.342v69.194h-9.342v-33.239h-33.076v33.239h-9.45V962.112z"/>
	<path d="M361.028,959.451l32.669,71.855h-9.903l-8.031-17.706h-29.362l-7.94,17.706h-9.831L361.028,959.451z M361.002,981.047
		l-11.069,24.679h22.259L361.002,981.047z"/>
	<path d="M453.875,964.503v10.699c-7.459-3.657-14.32-5.485-20.584-5.485c-8.038,0-14.809,2.597-20.313,7.786
		c-5.503,5.191-8.255,11.565-8.255,19.125c0,7.705,2.815,14.134,8.446,19.289c5.63,5.154,12.682,7.731,21.154,7.731
		c6.156,0,12.673-1.937,19.553-5.812v10.809c-6.264,3.331-13.053,4.996-20.367,4.996c-10.718,0-19.878-3.626-27.482-10.88
		c-7.604-7.255-11.406-16.003-11.406-26.242c0-10.059,3.739-18.668,11.215-25.833c7.477-7.164,16.484-10.746,27.021-10.746
		C439.627,959.94,446.633,961.461,453.875,964.503z"/>
	<path d="M465.118,962.112h9.45v28.107l29.351-28.107h13.175l-33.441,32.109l33.658,37.085h-12.035l-30.709-33.755v33.755h-9.45
		V962.112z"/>
</g>
<polygon fill="#39B54A" points="-38.724,1221.397 -38.724,1269.397 -52.58,1277.397 -52.58,1261.397 -66.436,1269.397 
	-66.436,1285.397 -80.292,1293.397 -80.292,1245.397 -66.436,1237.397 -66.436,1253.397 -52.58,1245.397 -52.58,1229.397 "/>
<polygon fill="#D32E2E" points="-94.149,1285.397 -94.149,1301.397 -108.003,1293.397 -108.003,1277.397 "/>
<polygon fill="#D32E2E" points="-38.724,1205.397 -52.58,1213.397 -66.436,1221.397 -94.149,1237.397 -94.149,1269.397 
	-108.003,1261.397 -108.003,1229.397 -66.436,1205.397 -94.149,1189.397 -121.859,1205.397 -108.003,1213.397 -121.859,1221.397 
	-135.715,1213.397 -149.571,1205.397 -135.715,1197.397 -121.859,1189.397 -94.149,1173.397 -66.436,1189.397 -52.58,1197.397 "/>
<polygon fill="#4D62AD" points="-121.859,1269.397 -121.859,1285.397 -135.715,1277.397 -149.571,1269.397 -149.571,1221.397 
	-135.715,1229.397 -135.715,1261.397 "/>
<g>
	<path d="M-14.103,1211.269h28.206v6.3H3.096v39.829h-6.228v-39.829h-10.971V1211.269z"/>
	<path d="M22.177,1211.269h9.994c4.973,0,9.021,1.236,12.148,3.71c3.126,2.474,4.689,5.642,4.689,9.502
		c0,3.089-1.012,5.816-3.034,8.181c-2.022,2.365-5.177,4.03-9.462,4.996l13.401,19.74h-7.228l-12.796-18.973h-1.412v18.973h-6.3
		V1211.269z M28.478,1216.845v16.076c9.293,0.193,13.94-2.498,13.94-8.074c0-1.955-0.543-3.555-1.629-4.798
		c-1.086-1.243-2.535-2.088-4.345-2.534C34.633,1217.067,31.977,1216.845,28.478,1216.845z"/>
	<path d="M58.168,1211.269h6.228v46.129h-6.228V1211.269z"/>
	<path d="M70.696,1211.341h6.651l14.486,32.671l14.592-32.671h6.707l-21.381,47.613L70.696,1211.341z"/>
	<path d="M119.215,1211.269h6.228v46.129h-6.228V1211.269z"/>
	<path d="M152.798,1209.494l21.779,47.903h-6.602l-5.354-11.804h-19.575l-5.293,11.804H131.2L152.798,1209.494z M152.781,1223.891
		l-7.379,16.453h14.839L152.781,1223.891z"/>
	<path d="M201.046,1211.269h6.3v17.742h22.051v-17.742h6.228v46.129h-6.228v-22.159h-22.051v22.159h-6.3V1211.269z"/>
	<path d="M262.835,1209.494l21.779,47.903h-6.602l-5.354-11.804h-19.575l-5.293,11.804h-6.554L262.835,1209.494z M262.818,1223.891
		l-7.379,16.453h14.839L262.818,1223.891z"/>
	<path d="M324.733,1212.861v7.133c-4.973-2.438-9.547-3.657-13.723-3.657c-5.359,0-9.873,1.731-13.542,5.191
		c-3.669,3.461-5.503,7.71-5.503,12.75c0,5.137,1.876,9.422,5.63,12.859c3.753,3.437,8.455,5.154,14.103,5.154
		c4.104,0,8.449-1.291,13.035-3.874v7.205c-4.176,2.221-8.702,3.331-13.578,3.331c-7.145,0-13.252-2.418-18.321-7.254
		c-5.069-4.836-7.604-10.668-7.604-17.494c0-6.705,2.492-12.445,7.477-17.222s10.989-7.164,18.014-7.164
		C315.234,1209.82,319.905,1210.834,324.733,1212.861z"/>
	<path d="M332.228,1211.269h6.3v18.737l19.568-18.737h8.783l-22.294,21.406l22.439,24.723h-8.023l-20.473-22.503v22.503h-6.3
		V1211.269z"/>
</g>
<polygon fill="#39B54A" points="19.463,1410.94 19.463,1445.44 9.505,1451.19 9.505,1439.69 -0.454,1445.44 -0.454,1456.94 
	-10.413,1462.69 -10.413,1428.19 -0.454,1422.44 -0.454,1433.94 9.505,1428.19 9.505,1416.69 "/>
<polygon fill="#D32E2E" points="-20.374,1456.94 -20.374,1468.44 -30.331,1462.69 -30.331,1451.19 "/>
<polygon fill="#D32E2E" points="19.463,1399.44 9.505,1405.19 -0.454,1410.94 -20.374,1422.44 -20.374,1445.44 -30.331,1439.69 
	-30.331,1416.69 -0.454,1399.44 -20.374,1387.94 -40.29,1399.44 -30.331,1405.19 -40.29,1410.94 -50.249,1405.19 -60.208,1399.44 
	-50.249,1393.69 -40.29,1387.94 -20.374,1376.44 -0.454,1387.94 9.505,1393.69 "/>
<polygon fill="#4D62AD" points="-40.29,1445.44 -40.29,1456.94 -50.249,1451.19 -60.208,1445.44 -60.208,1410.94 -50.249,1416.69 
	-50.249,1439.69 "/>
<g>
	<path d="M37.16,1403.66h20.273v4.528h-7.911v28.627h-4.477v-28.627H37.16V1403.66z"/>
	<path d="M63.236,1403.66h7.183c3.574,0,6.484,0.889,8.731,2.667c2.247,1.777,3.371,4.055,3.371,6.829
		c0,2.22-0.727,4.181-2.181,5.88c-1.453,1.7-3.721,2.896-6.8,3.591l9.631,14.188h-5.194l-9.197-13.637h-1.015v13.637h-4.528V1403.66
		z M67.764,1407.668v11.555c6.679,0.14,10.021-1.795,10.021-5.803c0-1.405-0.391-2.556-1.172-3.449s-1.821-1.5-3.123-1.821
		S70.28,1407.668,67.764,1407.668z"/>
	<path d="M89.105,1403.66h4.476v33.155h-4.476V1403.66z"/>
	<path d="M98.109,1403.712h4.781l10.412,23.482l10.488-23.482h4.82l-15.367,34.223L98.109,1403.712z"/>
	<path d="M132.982,1403.66h4.477v33.155h-4.477V1403.66z"/>
	<path d="M157.12,1402.385l15.654,34.431h-4.746l-3.848-8.484h-14.069l-3.804,8.484h-4.711L157.12,1402.385z M157.108,1412.732
		l-5.304,11.825h10.666L157.108,1412.732z"/>
	<path d="M191.798,1403.66h4.528v12.752h15.849v-12.752h4.476v33.155h-4.476v-15.927h-15.849v15.927h-4.528V1403.66z"/>
	<path d="M236.208,1402.385l15.654,34.431h-4.745l-3.848-8.484h-14.069l-3.805,8.484h-4.71L236.208,1402.385z M236.196,1412.732
		l-5.304,11.825h10.667L236.196,1412.732z"/>
	<path d="M280.698,1404.805v5.127c-3.574-1.752-6.862-2.629-9.863-2.629c-3.852,0-7.096,1.245-9.733,3.731
		c-2.637,2.488-3.955,5.542-3.955,9.164c0,3.692,1.348,6.772,4.046,9.243c2.697,2.47,6.076,3.704,10.136,3.704
		c2.949,0,6.073-0.928,9.369-2.784v5.179c-3.001,1.596-6.255,2.395-9.76,2.395c-5.135,0-9.524-1.738-13.168-5.214
		s-5.465-7.668-5.465-12.574c0-4.819,1.792-8.945,5.375-12.378c3.583-3.433,7.898-5.149,12.947-5.149
		C273.871,1402.619,277.228,1403.348,280.698,1404.805z"/>
	<path d="M286.085,1403.66h4.528v13.468l14.064-13.468h6.313l-16.024,15.386l16.128,17.77h-5.767l-14.714-16.174v16.174h-4.528
		V1403.66z"/>
</g>
<polygon points="831.875,963.83 831.875,1035.83 811.091,1047.83 811.091,1023.83 790.307,1035.83 790.307,1059.83 769.524,1071.83 
	769.524,999.83 790.307,987.83 790.307,1011.83 811.091,999.83 811.091,975.83 "/>
<polygon points="748.737,1059.83 748.737,1083.83 727.956,1071.83 727.956,1047.83 "/>
<polygon points="831.875,939.83 811.091,951.83 790.307,963.83 748.737,987.83 748.737,1035.83 727.956,1023.83 727.956,975.83 
	790.307,939.83 748.737,915.83 707.172,939.83 727.956,951.83 707.172,963.83 686.388,951.83 665.605,939.83 686.388,927.83 
	707.172,915.83 748.737,891.83 790.307,915.83 811.091,927.83 "/>
<polygon points="707.172,1035.83 707.172,1059.83 686.388,1047.83 665.605,1035.83 665.605,963.83 686.388,975.83 686.388,1023.83 
	"/>
<g>
	<path d="M868.806,948.636h42.309v9.451h-16.511v59.743h-9.342v-59.743h-16.457V948.636z"/>
	<path d="M923.227,948.636h14.99c7.458,0,13.532,1.856,18.222,5.566c4.689,3.709,7.033,8.462,7.033,14.252
		c0,4.633-1.518,8.725-4.55,12.271c-3.034,3.549-7.766,6.045-14.193,7.494l20.101,29.61h-10.841l-19.193-28.46h-2.118v28.46h-9.45
		V948.636z M932.677,957v24.115c13.939,0.289,20.91-3.748,20.91-12.112c0-2.933-0.814-5.331-2.444-7.196
		c-1.629-1.864-3.802-3.132-6.518-3.802C941.91,957.335,937.927,957,932.677,957z"/>
	<path d="M977.213,948.636h9.342v69.194h-9.342V948.636z"/>
	<path d="M996.005,948.745h9.977l21.729,49.006l21.889-49.006h10.06l-32.071,71.42L996.005,948.745z"/>
	<path d="M1068.783,948.636h9.342v69.194h-9.342V948.636z"/>
	<path d="M1119.158,945.975l32.67,71.855h-9.904l-8.029-17.706h-29.363l-7.939,17.706h-9.83L1119.158,945.975z M1119.133,967.57
		l-11.068,24.679h22.258L1119.133,967.57z"/>
	<path d="M1191.529,948.636h9.451v26.613h33.076v-26.613h9.342v69.194h-9.342v-33.239h-33.076v33.239h-9.451V948.636z"/>
	<path d="M1284.213,945.975l32.67,71.855h-9.902l-8.031-17.706h-29.361l-7.941,17.706h-9.83L1284.213,945.975z M1284.188,967.57
		l-11.068,24.679h22.26L1284.188,967.57z"/>
	<path d="M1377.061,951.026v10.699c-7.459-3.657-14.32-5.485-20.584-5.485c-8.039,0-14.809,2.597-20.313,7.786
		c-5.504,5.191-8.256,11.565-8.256,19.125c0,7.705,2.814,14.134,8.445,19.289c5.631,5.154,12.682,7.731,21.154,7.731
		c6.156,0,12.674-1.937,19.553-5.812v10.809c-6.264,3.331-13.053,4.996-20.367,4.996c-10.717,0-19.879-3.626-27.482-10.88
		c-7.604-7.255-11.404-16.003-11.404-26.242c0-10.059,3.738-18.668,11.215-25.833c7.477-7.164,16.484-10.746,27.02-10.746
		C1362.813,946.464,1369.818,947.984,1377.061,951.026z"/>
	<path d="M1388.303,948.636h9.451v28.107l29.352-28.107h13.174l-33.439,32.109l33.658,37.085h-12.035l-30.709-33.755v33.755h-9.451
		V948.636z"/>
</g>
<polygon points="884.461,1207.921 884.461,1255.921 870.605,1263.921 870.605,1247.921 856.75,1255.921 856.75,1271.921 
	842.894,1279.921 842.894,1231.921 856.75,1223.921 856.75,1239.921 870.605,1231.921 870.605,1215.921 "/>
<polygon points="829.037,1271.921 829.037,1287.921 815.182,1279.921 815.182,1263.921 "/>
<polygon points="884.461,1191.921 870.605,1199.921 856.75,1207.921 829.037,1223.921 829.037,1255.921 815.182,1247.921 
	815.182,1215.921 856.75,1191.921 829.037,1175.921 801.326,1191.921 815.182,1199.921 801.326,1207.921 787.471,1199.921 
	773.615,1191.921 787.471,1183.921 801.326,1175.921 829.037,1159.921 856.75,1175.921 870.605,1183.921 "/>
<polygon points="801.326,1255.921 801.326,1271.921 787.471,1263.921 773.615,1255.921 773.615,1207.921 787.471,1215.921 
	787.471,1247.921 "/>
<g>
	<path d="M909.083,1197.792h28.206v6.3h-11.007v39.829h-6.228v-39.829h-10.971V1197.792z"/>
	<path d="M945.363,1197.792h9.994c4.973,0,9.021,1.236,12.148,3.71c3.126,2.474,4.689,5.642,4.689,9.502
		c0,3.089-1.012,5.816-3.034,8.181c-2.022,2.365-5.177,4.03-9.462,4.996l13.401,19.74h-7.228l-12.796-18.973h-1.412v18.973h-6.3
		V1197.792z M951.663,1203.368v16.076c9.293,0.193,13.94-2.498,13.94-8.074c0-1.955-0.543-3.555-1.629-4.798
		c-1.086-1.243-2.535-2.088-4.345-2.534C957.818,1203.591,955.163,1203.368,951.663,1203.368z"/>
	<path d="M981.354,1197.792h6.228v46.129h-6.228V1197.792z"/>
	<path d="M993.882,1197.864h6.651l14.486,32.671l14.592-32.671h6.707l-21.381,47.613L993.882,1197.864z"/>
	<path d="M1042.401,1197.792h6.228v46.129h-6.228V1197.792z"/>
	<path d="M1075.984,1196.018l21.779,47.903h-6.603l-5.354-11.804h-19.575l-5.293,11.804h-6.554L1075.984,1196.018z
		 M1075.967,1210.414l-7.379,16.453h14.839L1075.967,1210.414z"/>
	<path d="M1124.232,1197.792h6.299v17.742h22.051v-17.742h6.229v46.129h-6.229v-22.159h-22.051v22.159h-6.299V1197.792z"/>
	<path d="M1186.021,1196.018l21.779,47.903h-6.604l-5.354-11.804h-19.574l-5.293,11.804h-6.555L1186.021,1196.018z
		 M1186.004,1210.414l-7.379,16.453h14.838L1186.004,1210.414z"/>
	<path d="M1247.918,1199.385v7.133c-4.973-2.438-9.547-3.657-13.723-3.657c-5.357,0-9.873,1.731-13.541,5.191
		c-3.67,3.461-5.504,7.71-5.504,12.75c0,5.137,1.877,9.422,5.631,12.859c3.754,3.437,8.455,5.154,14.104,5.154
		c4.104,0,8.447-1.291,13.033-3.874v7.205c-4.176,2.221-8.701,3.331-13.578,3.331c-7.145,0-13.252-2.418-18.32-7.254
		s-7.604-10.668-7.604-17.494c0-6.705,2.492-12.445,7.477-17.222s10.99-7.164,18.014-7.164
		C1238.42,1196.344,1243.092,1197.357,1247.918,1199.385z"/>
	<path d="M1255.414,1197.792h6.301v18.737l19.566-18.737h8.783l-22.293,21.406l22.439,24.723h-8.023l-20.473-22.503v22.503h-6.301
		V1197.792z"/>
</g>
<polygon points="942.649,1397.464 942.649,1431.964 932.69,1437.714 932.69,1426.214 922.731,1431.964 922.731,1443.464 
	912.772,1449.214 912.772,1414.714 922.731,1408.964 922.731,1420.464 932.69,1414.714 932.69,1403.214 "/>
<polygon points="902.812,1443.464 902.812,1454.964 892.854,1449.214 892.854,1437.714 "/>
<polygon points="942.649,1385.964 932.69,1391.714 922.731,1397.464 902.812,1408.964 902.812,1431.964 892.854,1426.214 
	892.854,1403.214 922.731,1385.964 902.812,1374.464 882.896,1385.964 892.854,1391.714 882.896,1397.464 872.937,1391.714 
	862.978,1385.964 872.937,1380.214 882.896,1374.464 902.812,1362.964 922.731,1374.464 932.69,1380.214 "/>
<polygon points="882.896,1431.964 882.896,1443.464 872.937,1437.714 862.978,1431.964 862.978,1397.464 872.937,1403.214 
	872.937,1426.214 "/>
<g>
	<path d="M960.345,1390.184h20.273v4.528h-7.911v28.627h-4.477v-28.627h-7.885V1390.184z"/>
	<path d="M986.422,1390.184h7.183c3.574,0,6.484,0.889,8.731,2.667c2.247,1.777,3.371,4.055,3.371,6.829
		c0,2.22-0.727,4.181-2.181,5.88c-1.453,1.7-3.721,2.896-6.8,3.591l9.631,14.188h-5.194l-9.197-13.637h-1.015v13.637h-4.528
		V1390.184z M990.95,1394.191v11.555c6.679,0.14,10.021-1.795,10.021-5.803c0-1.405-0.391-2.556-1.172-3.449s-1.821-1.5-3.123-1.821
		S993.465,1394.191,990.95,1394.191z"/>
	<path d="M1012.291,1390.184h4.476v33.155h-4.476V1390.184z"/>
	<path d="M1021.294,1390.235h4.781l10.412,23.482l10.488-23.482h4.819l-15.367,34.223L1021.294,1390.235z"/>
	<path d="M1056.168,1390.184h4.477v33.155h-4.477V1390.184z"/>
	<path d="M1080.306,1388.908l15.653,34.431h-4.745l-3.848-8.484h-14.069l-3.805,8.484h-4.711L1080.306,1388.908z M1080.293,1399.256
		l-5.304,11.825h10.665L1080.293,1399.256z"/>
	<path d="M1114.983,1390.184h4.528v12.752h15.85v-12.752h4.477v33.155h-4.477v-15.927h-15.85v15.927h-4.528V1390.184z"/>
	<path d="M1159.395,1388.908l15.654,34.431h-4.746l-3.848-8.484h-14.068l-3.805,8.484h-4.711L1159.395,1388.908z M1159.383,1399.256
		l-5.305,11.825h10.666L1159.383,1399.256z"/>
	<path d="M1203.885,1391.328v5.127c-3.574-1.752-6.863-2.629-9.863-2.629c-3.854,0-7.098,1.245-9.734,3.731
		c-2.637,2.488-3.955,5.542-3.955,9.164c0,3.692,1.348,6.772,4.047,9.243c2.697,2.47,6.076,3.704,10.137,3.704
		c2.949,0,6.072-0.928,9.369-2.784v5.179c-3.002,1.596-6.256,2.395-9.76,2.395c-5.135,0-9.525-1.738-13.168-5.214
		c-3.645-3.476-5.467-7.668-5.467-12.574c0-4.819,1.793-8.945,5.375-12.378s7.898-5.149,12.947-5.149
		C1197.057,1389.143,1200.414,1389.871,1203.885,1391.328z"/>
	<path d="M1209.271,1390.184h4.527v13.468l14.064-13.468h6.313l-16.023,15.386l16.129,17.77h-5.768l-14.715-16.174v16.174h-4.527
		V1390.184z"/>
</g>
<polygon fill="#FFFFFF" points="1722.521,949.814 1722.521,1021.814 1701.738,1033.814 1701.738,1009.814 1680.953,1021.814 
	1680.953,1045.814 1660.17,1057.814 1660.17,985.814 1680.953,973.814 1680.953,997.814 1701.738,985.814 1701.738,961.814 "/>
<polygon fill="#FFFFFF" points="1639.385,1045.814 1639.385,1069.814 1618.602,1057.814 1618.602,1033.814 "/>
<polygon fill="#FFFFFF" points="1722.521,925.814 1701.738,937.814 1680.953,949.814 1639.385,973.814 1639.385,1021.814 
	1618.602,1009.814 1618.602,961.814 1680.953,925.814 1639.385,901.814 1597.818,925.814 1618.602,937.814 1597.818,949.814 
	1577.035,937.814 1556.252,925.814 1577.035,913.814 1597.818,901.814 1639.385,877.814 1680.953,901.814 1701.738,913.814 "/>
<polygon fill="#FFFFFF" points="1597.818,1021.814 1597.818,1045.814 1577.035,1033.814 1556.252,1021.814 1556.252,949.814 
	1577.035,961.814 1577.035,1009.814 "/>
<g>
	<path fill="#FFFFFF" d="M1759.453,934.62h42.309v9.451h-16.51v59.743h-9.342v-59.743h-16.457V934.62z"/>
	<path fill="#FFFFFF" d="M1813.873,934.62h14.99c7.459,0,13.533,1.856,18.223,5.566c4.689,3.709,7.033,8.462,7.033,14.252
		c0,4.633-1.518,8.725-4.551,12.271c-3.033,3.549-7.766,6.045-14.193,7.494l20.102,29.61h-10.842l-19.193-28.46h-2.117v28.46h-9.451
		V934.62z M1823.324,942.984V967.1c13.939,0.289,20.91-3.748,20.91-12.112c0-2.933-0.814-5.331-2.443-7.196
		c-1.631-1.864-3.803-3.132-6.518-3.802C1832.557,943.319,1828.574,942.984,1823.324,942.984z"/>
	<path fill="#FFFFFF" d="M1867.859,934.62h9.342v69.194h-9.342V934.62z"/>
	<path fill="#FFFFFF" d="M1886.652,934.729h9.977l21.729,49.006l21.889-49.006h10.061l-32.072,71.42L1886.652,934.729z"/>
	<path fill="#FFFFFF" d="M1959.43,934.62h9.342v69.194h-9.342V934.62z"/>
	<path fill="#FFFFFF" d="M2009.805,931.959l32.67,71.855h-9.904l-8.029-17.706h-29.363l-7.939,17.706h-9.83L2009.805,931.959z
		 M2009.779,953.555l-11.068,24.679h22.258L2009.779,953.555z"/>
	<path fill="#FFFFFF" d="M2082.176,934.62h9.451v26.613h33.076V934.62h9.342v69.194h-9.342v-33.239h-33.076v33.239h-9.451V934.62z"
		/>
	<path fill="#FFFFFF" d="M2174.859,931.959l32.67,71.855h-9.902l-8.031-17.706h-29.361l-7.941,17.706h-9.83L2174.859,931.959z
		 M2174.834,953.555l-11.068,24.679h22.26L2174.834,953.555z"/>
	<path fill="#FFFFFF" d="M2267.707,937.011v10.699c-7.459-3.657-14.32-5.485-20.584-5.485c-8.039,0-14.809,2.597-20.313,7.786
		c-5.504,5.191-8.256,11.565-8.256,19.125c0,7.705,2.814,14.134,8.445,19.289c5.631,5.154,12.682,7.731,21.154,7.731
		c6.156,0,12.674-1.937,19.553-5.812v10.809c-6.264,3.331-13.053,4.996-20.367,4.996c-10.717,0-19.879-3.626-27.482-10.88
		c-7.604-7.255-11.404-16.003-11.404-26.242c0-10.059,3.738-18.668,11.215-25.833c7.477-7.164,16.484-10.746,27.02-10.746
		C2253.459,932.448,2260.465,933.969,2267.707,937.011z"/>
	<path fill="#FFFFFF" d="M2278.949,934.62h9.451v28.107l29.352-28.107h13.174l-33.439,32.109l33.658,37.085h-12.035L2288.4,970.06
		v33.755h-9.451V934.62z"/>
</g>
<polygon fill="#FFFFFF" points="1775.107,1193.905 1775.107,1241.905 1761.252,1249.905 1761.252,1233.905 1747.396,1241.905 
	1747.396,1257.905 1733.541,1265.905 1733.541,1217.905 1747.396,1209.905 1747.396,1225.905 1761.252,1217.905 1761.252,1201.905 
	"/>
<polygon fill="#FFFFFF" points="1719.684,1257.905 1719.684,1273.905 1705.828,1265.905 1705.828,1249.905 "/>
<polygon fill="#FFFFFF" points="1775.107,1177.905 1761.252,1185.905 1747.396,1193.905 1719.684,1209.905 1719.684,1241.905 
	1705.828,1233.905 1705.828,1201.905 1747.396,1177.905 1719.684,1161.905 1691.973,1177.905 1705.828,1185.905 1691.973,1193.905 
	1678.117,1185.905 1664.262,1177.905 1678.117,1169.905 1691.973,1161.905 1719.684,1145.905 1747.396,1161.905 1761.252,1169.905 
	"/>
<polygon fill="#FFFFFF" points="1691.973,1241.905 1691.973,1257.905 1678.117,1249.905 1664.262,1241.905 1664.262,1193.905 
	1678.117,1201.905 1678.117,1233.905 "/>
<g>
	<path fill="#FFFFFF" d="M1799.729,1183.776h28.207v6.3h-11.008v39.829h-6.229v-39.829h-10.971V1183.776z"/>
	<path fill="#FFFFFF" d="M1836.01,1183.776h9.994c4.973,0,9.021,1.236,12.146,3.71c3.127,2.474,4.689,5.642,4.689,9.502
		c0,3.089-1.012,5.816-3.033,8.181c-2.023,2.365-5.178,4.03-9.463,4.996l13.402,19.74h-7.229l-12.795-18.973h-1.412v18.973h-6.301
		V1183.776z M1842.311,1189.353v16.076c9.293,0.193,13.939-2.498,13.939-8.074c0-1.955-0.543-3.555-1.629-4.798
		s-2.535-2.088-4.346-2.534C1848.465,1189.575,1845.809,1189.353,1842.311,1189.353z"/>
	<path fill="#FFFFFF" d="M1872,1183.776h6.229v46.129H1872V1183.776z"/>
	<path fill="#FFFFFF" d="M1884.529,1183.849h6.65l14.486,32.671l14.592-32.671h6.707l-21.381,47.613L1884.529,1183.849z"/>
	<path fill="#FFFFFF" d="M1933.047,1183.776h6.229v46.129h-6.229V1183.776z"/>
	<path fill="#FFFFFF" d="M1966.631,1182.002l21.779,47.903h-6.602l-5.354-11.804h-19.576l-5.293,11.804h-6.553L1966.631,1182.002z
		 M1966.613,1196.398l-7.379,16.453h14.84L1966.613,1196.398z"/>
	<path fill="#FFFFFF" d="M2014.879,1183.776h6.299v17.742h22.051v-17.742h6.229v46.129h-6.229v-22.159h-22.051v22.159h-6.299
		V1183.776z"/>
	<path fill="#FFFFFF" d="M2076.668,1182.002l21.779,47.903h-6.604l-5.354-11.804h-19.574l-5.293,11.804h-6.555L2076.668,1182.002z
		 M2076.65,1196.398l-7.379,16.453h14.838L2076.65,1196.398z"/>
	<path fill="#FFFFFF" d="M2138.564,1185.369v7.133c-4.973-2.438-9.547-3.657-13.723-3.657c-5.357,0-9.873,1.731-13.541,5.191
		c-3.67,3.461-5.504,7.71-5.504,12.75c0,5.137,1.877,9.422,5.631,12.859c3.754,3.437,8.455,5.154,14.104,5.154
		c4.104,0,8.447-1.291,13.033-3.874v7.205c-4.176,2.221-8.701,3.331-13.578,3.331c-7.145,0-13.252-2.418-18.32-7.254
		s-7.604-10.668-7.604-17.494c0-6.705,2.492-12.445,7.477-17.222s10.99-7.164,18.014-7.164
		C2129.066,1182.328,2133.738,1183.342,2138.564,1185.369z"/>
	<path fill="#FFFFFF" d="M2146.061,1183.776h6.301v18.737l19.566-18.737h8.783l-22.293,21.406l22.439,24.723h-8.023l-20.473-22.503
		v22.503h-6.301V1183.776z"/>
</g>
<polygon fill="#FFFFFF" points="1833.295,1383.448 1833.295,1417.948 1823.338,1423.698 1823.338,1412.198 1813.379,1417.948 
	1813.379,1429.448 1803.42,1435.198 1803.42,1400.698 1813.379,1394.948 1813.379,1406.448 1823.338,1400.698 1823.338,1389.198 "/>
<polygon fill="#FFFFFF" points="1793.459,1429.448 1793.459,1440.948 1783.502,1435.198 1783.502,1423.698 "/>
<polygon fill="#FFFFFF" points="1833.295,1371.948 1823.338,1377.698 1813.379,1383.448 1793.459,1394.948 1793.459,1417.948 
	1783.502,1412.198 1783.502,1389.198 1813.379,1371.948 1793.459,1360.448 1773.543,1371.948 1783.502,1377.698 1773.543,1383.448 
	1763.584,1377.698 1753.625,1371.948 1763.584,1366.198 1773.543,1360.448 1793.459,1348.948 1813.379,1360.448 1823.338,1366.198 
	"/>
<polygon fill="#FFFFFF" points="1773.543,1417.948 1773.543,1429.448 1763.584,1423.698 1753.625,1417.948 1753.625,1383.448 
	1763.584,1389.198 1763.584,1412.198 "/>
<g>
	<path fill="#FFFFFF" d="M1850.992,1376.168h20.273v4.528h-7.912v28.627h-4.477v-28.627h-7.885V1376.168z"/>
	<path fill="#FFFFFF" d="M1877.068,1376.168h7.184c3.572,0,6.482,0.889,8.73,2.667c2.246,1.777,3.371,4.055,3.371,6.829
		c0,2.22-0.727,4.181-2.182,5.88c-1.453,1.7-3.721,2.896-6.801,3.591l9.633,14.188h-5.195l-9.197-13.637h-1.016v13.637h-4.527
		V1376.168z M1881.596,1380.176v11.555c6.68,0.14,10.021-1.795,10.021-5.803c0-1.405-0.391-2.556-1.172-3.449
		s-1.822-1.5-3.123-1.821S1884.111,1380.176,1881.596,1380.176z"/>
	<path fill="#FFFFFF" d="M1902.938,1376.168h4.477v33.155h-4.477V1376.168z"/>
	<path fill="#FFFFFF" d="M1911.941,1376.22h4.781l10.412,23.482l10.488-23.482h4.818l-15.367,34.223L1911.941,1376.22z"/>
	<path fill="#FFFFFF" d="M1946.814,1376.168h4.477v33.155h-4.477V1376.168z"/>
	<path fill="#FFFFFF" d="M1970.953,1374.893l15.652,34.431h-4.744l-3.848-8.484h-14.07l-3.805,8.484h-4.711L1970.953,1374.893z
		 M1970.939,1385.24l-5.303,11.825h10.664L1970.939,1385.24z"/>
	<path fill="#FFFFFF" d="M2005.631,1376.168h4.527v12.752h15.85v-12.752h4.477v33.155h-4.477v-15.927h-15.85v15.927h-4.527V1376.168
		z"/>
	<path fill="#FFFFFF" d="M2050.041,1374.893l15.654,34.431h-4.746l-3.848-8.484h-14.068l-3.805,8.484h-4.711L2050.041,1374.893z
		 M2050.029,1385.24l-5.305,11.825h10.666L2050.029,1385.24z"/>
	<path fill="#FFFFFF" d="M2094.531,1377.313v5.127c-3.574-1.752-6.863-2.629-9.863-2.629c-3.854,0-7.098,1.245-9.734,3.731
		c-2.637,2.488-3.955,5.542-3.955,9.164c0,3.692,1.348,6.772,4.047,9.243c2.697,2.47,6.076,3.704,10.137,3.704
		c2.949,0,6.072-0.928,9.369-2.784v5.179c-3.002,1.596-6.256,2.395-9.76,2.395c-5.135,0-9.525-1.738-13.168-5.214
		c-3.645-3.476-5.467-7.668-5.467-12.574c0-4.819,1.793-8.945,5.375-12.378s7.898-5.149,12.947-5.149
		C2087.703,1375.127,2091.061,1375.855,2094.531,1377.313z"/>
	<path fill="#FFFFFF" d="M2099.918,1376.168h4.527v13.468l14.064-13.468h6.313l-16.023,15.386l16.129,17.77h-5.768l-14.715-16.174
		v16.174h-4.527V1376.168z"/>
</g>
<rect x="590.125" y="140" width="1024" height="512"/>
<g opacity="0.15">
	<polygon fill="#6D6E71" points="1271.261,347.173 1271.261,493.653 1228.974,518.067 1228.974,469.24 1186.691,493.653 
		1186.691,542.481 1144.408,566.895 1144.408,420.413 1186.691,396 1186.691,444.827 1228.974,420.413 1228.974,371.587 	"/>
	<polygon fill="#6D6E71" points="1102.118,542.481 1102.118,591.308 1059.84,566.895 1059.84,518.067 	"/>
	<polygon fill="#6D6E71" points="1271.261,298.346 1228.974,322.759 1186.691,347.173 1102.118,396 1102.118,493.653 
		1059.84,469.24 1059.84,371.587 1186.691,298.346 1102.118,249.519 1017.555,298.346 1059.84,322.759 1017.555,347.173 
		975.271,322.759 932.988,298.346 975.271,273.933 1017.555,249.519 1102.118,200.692 1186.691,249.519 1228.974,273.933 	"/>
	<polygon fill="#6D6E71" points="1017.555,493.653 1017.555,542.481 975.271,518.067 932.988,493.653 932.988,347.173 
		975.271,371.587 975.271,469.24 	"/>
</g>
<g>
	<polygon fill="#FFFFFF" points="1141.414,384.144 1141.414,418.644 1131.455,424.394 1131.455,412.894 1121.498,418.644 
		1121.498,430.144 1111.537,435.894 1111.537,401.394 1121.498,395.644 1121.498,407.144 1131.455,401.394 1131.455,389.894 	"/>
	<polygon fill="#FFFFFF" points="1101.578,430.144 1101.578,441.644 1091.62,435.894 1091.62,424.394 	"/>
	<polygon fill="#FFFFFF" points="1141.414,372.644 1131.455,378.394 1121.498,384.144 1101.578,395.644 1101.578,418.644 
		1091.62,412.894 1091.62,389.894 1121.498,372.644 1101.578,361.144 1081.661,372.644 1091.62,378.394 1081.661,384.144 
		1071.702,378.394 1061.744,372.644 1071.702,366.894 1081.661,361.144 1101.578,349.644 1121.498,361.144 1131.455,366.894 	"/>
	<polygon fill="#FFFFFF" points="1081.661,418.644 1081.661,430.144 1071.702,424.394 1061.744,418.644 1061.744,384.144 
		1071.702,389.894 1071.702,412.894 	"/>
</g>
<g>
	<path fill="#FFFFFF" d="M954.275,456.999h21.682v4.842h-8.461v30.615h-4.787v-30.615h-8.434V456.999z"/>
	<path fill="#FFFFFF" d="M982.163,456.999h7.682c3.822,0,6.935,0.951,9.337,2.852c2.403,1.902,3.605,4.336,3.605,7.305
		c0,2.373-0.778,4.471-2.332,6.287c-1.555,1.818-3.979,3.098-7.273,3.84l10.301,15.174h-5.556l-9.835-14.584h-1.086v14.584h-4.843
		V456.999z M987.006,461.284v12.357c7.143,0.148,10.715-1.92,10.715-6.205c0-1.504-0.417-2.732-1.252-3.688
		c-0.835-0.957-1.948-1.605-3.34-1.949S989.695,461.284,987.006,461.284z"/>
	<path fill="#FFFFFF" d="M1009.828,456.999h4.787v35.457h-4.787V456.999z"/>
	<path fill="#FFFFFF" d="M1019.457,457.056h5.113l11.135,25.111l11.217-25.111h5.154l-16.435,36.598L1019.457,457.056z"/>
	<path fill="#FFFFFF" d="M1056.752,456.999h4.787v35.457h-4.787V456.999z"/>
	<path fill="#FFFFFF" d="M1082.566,455.636l16.74,36.82h-5.074l-4.115-9.072h-15.047l-4.068,9.072h-5.037L1082.566,455.636z
		 M1082.553,466.702l-5.672,12.646h11.406L1082.553,466.702z"/>
	<path fill="#FFFFFF" d="M1119.65,456.999h4.844v13.637h16.949v-13.637h4.787v35.457h-4.787v-17.033h-16.949v17.033h-4.844V456.999z
		"/>
	<path fill="#FFFFFF" d="M1167.146,455.636l16.74,36.82h-5.074l-4.115-9.072h-15.047l-4.068,9.072h-5.037L1167.146,455.636z
		 M1167.133,466.702l-5.672,12.646h11.406L1167.133,466.702z"/>
	<path fill="#FFFFFF" d="M1214.725,458.224v5.482c-3.822-1.873-7.338-2.811-10.549-2.811c-4.119,0-7.588,1.33-10.408,3.99
		s-4.23,5.926-4.23,9.801c0,3.947,1.441,7.242,4.328,9.883c2.885,2.643,6.498,3.963,10.84,3.963c3.154,0,6.494-0.992,10.02-2.979
		v5.539c-3.211,1.707-6.689,2.561-10.438,2.561c-5.492,0-10.186-1.859-14.082-5.576s-5.846-8.199-5.846-13.447
		c0-5.154,1.916-9.566,5.748-13.238c3.832-3.67,8.447-5.506,13.846-5.506C1207.424,455.886,1211.014,456.665,1214.725,458.224z"/>
	<path fill="#FFFFFF" d="M1220.486,456.999h4.842v14.402l15.041-14.402h6.752l-17.137,16.453l17.248,19.004h-6.168l-15.736-17.297
		v17.297h-4.842V456.999z"/>
</g>
<polygon opacity="0.3" fill="#FFFFFF" points="1591.336,590.895 1591.336,614.895 1584.408,618.895 1584.408,610.895 
	1577.48,614.895 1577.48,622.895 1570.553,626.895 1570.553,602.895 1577.48,598.895 1577.48,606.895 1584.408,602.895 
	1584.408,594.895 "/>
<polygon opacity="0.3" fill="#FFFFFF" points="1563.625,622.895 1563.625,630.894 1556.697,626.895 1556.697,618.895 "/>
<polygon opacity="0.3" fill="#FFFFFF" points="1591.336,582.895 1584.408,586.895 1577.48,590.895 1563.625,598.895 
	1563.625,614.895 1556.697,610.895 1556.697,594.895 1577.48,582.895 1563.625,574.895 1549.77,582.895 1556.697,586.895 
	1549.77,590.895 1542.842,586.895 1535.914,582.895 1542.842,578.895 1549.77,574.895 1563.625,566.895 1577.48,574.895 
	1584.408,578.895 "/>
<polygon opacity="0.3" fill="#FFFFFF" points="1549.77,614.895 1549.77,622.895 1542.842,618.895 1535.914,614.895 
	1535.914,590.895 1542.842,594.895 1542.842,610.895 "/>
<polygon fill="#39B54A" points="741.722,-450.842 741.722,-378.842 720.938,-366.842 720.938,-390.842 700.154,-378.842 
	700.154,-354.842 679.37,-342.842 679.37,-414.842 700.154,-426.842 700.154,-402.842 720.938,-414.842 720.938,-438.842 "/>
<polygon fill="#D32E2D" points="658.583,-354.842 658.583,-330.842 637.802,-342.842 637.802,-366.842 "/>
<polygon fill="#D32E2D" points="741.722,-474.842 720.938,-462.842 700.154,-450.842 658.583,-426.842 658.583,-378.842 
	637.802,-390.842 637.802,-438.842 700.154,-474.842 658.583,-498.842 617.018,-474.842 637.802,-462.842 617.018,-450.842 
	596.234,-462.842 575.451,-474.842 596.234,-486.842 617.018,-498.842 658.583,-522.842 700.154,-498.842 720.938,-486.842 "/>
<polygon fill="#4D62AD" points="617.018,-378.842 617.018,-354.842 596.234,-366.842 575.451,-378.842 575.451,-450.842 
	596.234,-438.842 596.234,-390.842 "/>
<polygon fill="#39B54A" points="1034.171,-459 1034.171,-411 1020.314,-403 1020.314,-419 1006.459,-411 1006.459,-395 
	992.604,-387 992.604,-435 1006.459,-443 1006.459,-427 1020.314,-435 1020.314,-451 "/>
<polygon fill="#D32E2D" points="978.745,-395 978.745,-379 964.891,-387 964.891,-403 "/>
<polygon fill="#D32E2D" points="1034.171,-475 1020.314,-467 1006.459,-459 978.745,-443 978.745,-411 964.891,-419 964.891,-451 
	1006.459,-475 978.745,-491 951.035,-475 964.891,-467 951.035,-459 937.18,-467 923.324,-475 937.18,-483 951.035,-491 
	978.745,-507 1006.459,-491 1020.314,-483 "/>
<polygon fill="#4D62AD" points="951.035,-411 951.035,-395 937.18,-403 923.324,-411 923.324,-459 937.18,-451 937.18,-419 "/>
<polygon fill="#39B54A" points="1581.194,-453.671 1581.194,-429.671 1574.267,-425.671 1574.267,-433.671 1567.339,-429.671 
	1567.339,-421.671 1560.411,-417.671 1560.411,-441.671 1567.339,-445.671 1567.339,-437.671 1574.267,-441.671 1574.267,-449.671 
	"/>
<polygon fill="#D32E2D" points="1553.482,-421.671 1553.482,-413.671 1546.555,-417.671 1546.555,-425.671 "/>
<polygon fill="#D32E2D" points="1581.194,-461.671 1574.267,-457.671 1567.339,-453.671 1553.482,-445.671 1553.482,-429.671 
	1546.555,-433.671 1546.555,-449.671 1567.339,-461.671 1553.482,-469.671 1539.627,-461.671 1546.555,-457.671 1539.627,-453.671 
	1532.699,-457.671 1525.771,-461.671 1532.699,-465.671 1539.627,-469.671 1553.482,-477.671 1567.339,-469.671 1574.267,-465.671 
	"/>
<polygon fill="#4D62AD" points="1539.627,-429.671 1539.627,-421.671 1532.699,-425.671 1525.771,-429.671 1525.771,-453.671 
	1532.699,-449.671 1532.699,-433.671 "/>
<polygon fill="#39B54A" points="1281.256,-472.5 1281.256,-438 1271.297,-432.25 1271.297,-443.75 1261.339,-438 1261.339,-426.5 
	1251.379,-420.75 1251.379,-455.25 1261.339,-461 1261.339,-449.5 1271.297,-455.25 1271.297,-466.75 "/>
<polygon fill="#D32E2D" points="1241.419,-426.5 1241.419,-415 1231.461,-420.75 1231.461,-432.25 "/>
<polygon fill="#D32E2D" points="1281.256,-484 1271.297,-478.25 1261.339,-472.5 1241.419,-461 1241.419,-438 1231.461,-443.75 
	1231.461,-466.75 1261.339,-484 1241.419,-495.5 1221.502,-484 1231.461,-478.25 1221.502,-472.5 1211.543,-478.25 1201.585,-484 
	1211.543,-489.75 1221.502,-495.5 1241.419,-507 1261.339,-495.5 1271.297,-489.75 "/>
<polygon fill="#4D62AD" points="1221.502,-438 1221.502,-426.5 1211.543,-432.25 1201.585,-438 1201.585,-472.5 1211.543,-466.75 
	1211.543,-443.75 "/>
<polygon points="740.697,-217.718 740.697,-145.718 719.913,-133.718 719.913,-157.718 699.13,-145.718 699.13,-121.718 
	678.346,-109.718 678.346,-181.718 699.13,-193.718 699.13,-169.718 719.913,-181.718 719.913,-205.718 "/>
<polygon points="657.559,-121.718 657.559,-97.718 636.777,-109.718 636.777,-133.718 "/>
<polygon points="740.697,-241.717 719.913,-229.717 699.13,-217.718 657.559,-193.718 657.559,-145.718 636.777,-157.718 
	636.777,-205.718 699.13,-241.717 657.559,-265.717 615.994,-241.717 636.777,-229.717 615.994,-217.718 595.21,-229.717 
	574.427,-241.717 595.21,-253.717 615.994,-265.717 657.559,-289.717 699.13,-265.717 719.913,-253.717 "/>
<polygon points="615.994,-145.718 615.994,-121.718 595.21,-133.718 574.427,-145.718 574.427,-217.718 595.21,-205.718 
	595.21,-157.718 "/>
<polygon points="1033.146,-225.876 1033.146,-177.876 1019.29,-169.876 1019.29,-185.876 1005.435,-177.876 1005.435,-161.876 
	991.579,-153.876 991.579,-201.876 1005.435,-209.876 1005.435,-193.876 1019.29,-201.876 1019.29,-217.876 "/>
<polygon points="977.721,-161.876 977.721,-145.876 963.866,-153.876 963.866,-169.876 "/>
<polygon points="1033.146,-241.875 1019.29,-233.876 1005.435,-225.876 977.721,-209.876 977.721,-177.876 963.866,-185.876 
	963.866,-217.876 1005.435,-241.875 977.721,-257.875 950.011,-241.875 963.866,-233.876 950.011,-225.876 936.155,-233.876 
	922.3,-241.875 936.155,-249.875 950.011,-257.875 977.721,-273.875 1005.435,-257.875 1019.29,-249.875 "/>
<polygon points="950.011,-177.876 950.011,-161.876 936.155,-169.876 922.3,-177.876 922.3,-225.876 936.155,-217.876 
	936.155,-185.876 "/>
<polygon points="1580.17,-220.546 1580.17,-196.547 1573.242,-192.547 1573.242,-200.547 1566.314,-196.547 1566.314,-188.547 
	1559.387,-184.547 1559.387,-208.547 1566.314,-212.547 1566.314,-204.547 1573.242,-208.547 1573.242,-216.546 "/>
<polygon points="1552.458,-188.547 1552.458,-180.547 1545.53,-184.547 1545.53,-192.547 "/>
<polygon points="1580.17,-228.546 1573.242,-224.546 1566.314,-220.546 1552.458,-212.547 1552.458,-196.547 1545.53,-200.547 
	1545.53,-216.546 1566.314,-228.546 1552.458,-236.546 1538.603,-228.546 1545.53,-224.546 1538.603,-220.546 1531.675,-224.546 
	1524.747,-228.546 1531.675,-232.546 1538.603,-236.546 1552.458,-244.546 1566.314,-236.546 1573.242,-232.546 "/>
<polygon points="1538.603,-196.547 1538.603,-188.547 1531.675,-192.547 1524.747,-196.547 1524.747,-220.546 1531.675,-216.546 
	1531.675,-200.547 "/>
<polygon points="1280.231,-239.376 1280.231,-204.876 1270.272,-199.126 1270.272,-210.626 1260.314,-204.876 1260.314,-193.376 
	1250.354,-187.626 1250.354,-222.126 1260.314,-227.876 1260.314,-216.376 1270.272,-222.126 1270.272,-233.626 "/>
<polygon points="1240.395,-193.376 1240.395,-181.876 1230.437,-187.626 1230.437,-199.126 "/>
<polygon points="1280.231,-250.875 1270.272,-245.125 1260.314,-239.376 1240.395,-227.876 1240.395,-204.876 1230.437,-210.626 
	1230.437,-233.626 1260.314,-250.875 1240.395,-262.375 1220.478,-250.875 1230.437,-245.125 1220.478,-239.376 1210.519,-245.125 
	1200.561,-250.875 1210.519,-256.625 1220.478,-262.375 1240.395,-273.875 1260.314,-262.375 1270.272,-256.625 "/>
<polygon points="1220.478,-204.876 1220.478,-193.376 1210.519,-199.126 1200.561,-204.876 1200.561,-239.376 1210.519,-233.626 
	1210.519,-210.626 "/>
<polygon fill="#FFFFFF" points="725.818,-717.307 725.818,-645.307 705.034,-633.307 705.034,-657.307 684.25,-645.307 
	684.25,-621.307 663.466,-609.307 663.466,-681.307 684.25,-693.307 684.25,-669.307 705.034,-681.307 705.034,-705.307 "/>
<polygon fill="#FFFFFF" points="642.68,-621.307 642.68,-597.307 621.898,-609.307 621.898,-633.307 "/>
<polygon fill="#FFFFFF" points="725.818,-741.307 705.034,-729.307 684.25,-717.307 642.68,-693.307 642.68,-645.307 
	621.898,-657.307 621.898,-705.307 684.25,-741.307 642.68,-765.307 601.114,-741.307 621.898,-729.307 601.114,-717.307 
	580.331,-729.307 559.547,-741.307 580.331,-753.307 601.114,-765.307 642.68,-789.307 684.25,-765.307 705.034,-753.307 "/>
<polygon fill="#FFFFFF" points="601.114,-645.307 601.114,-621.307 580.331,-633.307 559.547,-645.307 559.547,-717.307 
	580.331,-705.307 580.331,-657.307 "/>
<polygon fill="#FFFFFF" points="1018.267,-725.465 1018.267,-677.465 1004.411,-669.465 1004.411,-685.465 990.556,-677.465 
	990.556,-661.465 976.7,-653.465 976.7,-701.465 990.556,-709.465 990.556,-693.465 1004.411,-701.465 1004.411,-717.465 "/>
<polygon fill="#FFFFFF" points="962.841,-661.465 962.841,-645.465 948.987,-653.465 948.987,-669.465 "/>
<polygon fill="#FFFFFF" points="1018.267,-741.465 1004.411,-733.465 990.556,-725.465 962.841,-709.465 962.841,-677.465 
	948.987,-685.465 948.987,-717.465 990.556,-741.465 962.841,-757.465 935.132,-741.465 948.987,-733.465 935.132,-725.465 
	921.276,-733.465 907.421,-741.465 921.276,-749.465 935.132,-757.465 962.841,-773.465 990.556,-757.465 1004.411,-749.465 "/>
<polygon fill="#FFFFFF" points="935.132,-677.465 935.132,-661.465 921.276,-669.465 907.421,-677.465 907.421,-725.465 
	921.276,-717.465 921.276,-685.465 "/>
<polygon fill="#FFFFFF" points="1565.29,-720.137 1565.29,-696.137 1558.362,-692.137 1558.362,-700.137 1551.435,-696.137 
	1551.435,-688.137 1544.507,-684.137 1544.507,-708.137 1551.435,-712.137 1551.435,-704.137 1558.362,-708.137 1558.362,-716.137 
	"/>
<polygon fill="#FFFFFF" points="1537.579,-688.137 1537.579,-680.137 1530.651,-684.137 1530.651,-692.137 "/>
<polygon fill="#FFFFFF" points="1565.29,-728.137 1558.362,-724.137 1551.435,-720.137 1537.579,-712.137 1537.579,-696.137 
	1530.651,-700.137 1530.651,-716.137 1551.435,-728.137 1537.579,-736.137 1523.724,-728.137 1530.651,-724.137 1523.724,-720.137 
	1516.796,-724.137 1509.868,-728.137 1516.796,-732.137 1523.724,-736.137 1537.579,-744.137 1551.435,-736.137 1558.362,-732.137 
	"/>
<polygon fill="#FFFFFF" points="1523.724,-696.137 1523.724,-688.137 1516.796,-692.137 1509.868,-696.137 1509.868,-720.137 
	1516.796,-716.137 1516.796,-700.137 "/>
<polygon fill="#FFFFFF" points="1265.352,-738.965 1265.352,-704.465 1255.393,-698.715 1255.393,-710.215 1245.436,-704.465 
	1245.436,-692.965 1235.475,-687.215 1235.475,-721.715 1245.436,-727.465 1245.436,-715.965 1255.393,-721.715 1255.393,-733.215 
	"/>
<polygon fill="#FFFFFF" points="1225.516,-692.965 1225.516,-681.465 1215.557,-687.215 1215.557,-698.715 "/>
<polygon fill="#FFFFFF" points="1265.352,-750.465 1255.393,-744.715 1245.436,-738.965 1225.516,-727.465 1225.516,-704.465 
	1215.557,-710.215 1215.557,-733.215 1245.436,-750.465 1225.516,-761.965 1205.598,-750.465 1215.557,-744.715 1205.598,-738.965 
	1195.639,-744.715 1185.682,-750.465 1195.639,-756.215 1205.598,-761.965 1225.516,-773.465 1245.436,-761.965 1255.393,-756.215 
	"/>
<polygon fill="#FFFFFF" points="1205.598,-704.465 1205.598,-692.965 1195.639,-698.715 1185.682,-704.465 1185.682,-738.965 
	1195.639,-733.215 1195.639,-710.215 "/>
</svg>
